<svg xmlns="http://www.w3.org/2000/svg" width="22.75" height="22.75" viewBox="0 0 22.75 22.75"><path d="M11.375,0A11.375,11.375,0,1,1,0,11.375,11.375,11.375,0,0,1,11.375,0Z" fill="#8fc4e1"/><g transform="translate(11.375 4.898) rotate(45)" fill="#fff"><path d="M 6.583499908447266 7.083400249481201 L 0.9999001026153564 7.083400249481201 C 0.7242501378059387 7.083400249481201 0.5000001192092896 6.859149932861328 0.5000001192092896 6.583499908447266 L 0.5000001192092896 6.055200099945068 C 0.5000001192092896 5.779550075531006 0.7242501378059387 5.555300235748291 0.9999001026153564 5.555300235748291 L 5.055300235748291 5.555300235748291 L 5.555300235748291 5.555300235748291 L 5.555300235748291 5.055300235748291 L 5.555300235748291 0.9999001026153564 C 5.555300235748291 0.7242501378059387 5.779550075531006 0.5000001192092896 6.055200099945068 0.5000001192092896 L 6.583499908447266 0.5000001192092896 C 6.859149932861328 0.5000001192092896 7.083400249481201 0.7242501378059387 7.083400249481201 0.9999001026153564 L 7.083400249481201 6.055200099945068 L 7.083400249481201 6.583499908447266 C 7.083400249481201 6.859149932861328 6.859149932861328 7.083400249481201 6.583499908447266 7.083400249481201 Z" stroke="none"/><path d="M 6.583499908447266 6.583400249481201 L 6.583400249481201 6.583400249481201 L 6.583499908447266 1.00000011920929 L 6.055300235748291 0.9999001026153564 L 6.055300235748291 6.055300235748291 L 1.00000011920929 6.055200099945068 L 0.9999001026153564 6.583400249481201 L 6.583499908447266 6.583400249481201 M 6.583499908447266 7.583400249481201 L 0.9999001026153564 7.583400249481201 C 0.447300136089325 7.583400249481201 1.24740594742434e-07 7.135200023651123 1.24740594742434e-07 6.583499908447266 L 1.24740594742434e-07 6.055200099945068 C 1.24740594742434e-07 5.503499984741211 0.447300136089325 5.055300235748291 0.9999001026153564 5.055300235748291 L 5.055300235748291 5.055300235748291 L 5.055300235748291 0.9999001026153564 C 5.055300235748291 0.447300136089325 5.503499984741211 1.24740594742434e-07 6.055200099945068 1.24740594742434e-07 L 6.583499908447266 1.24740594742434e-07 C 7.135200023651123 1.24740594742434e-07 7.583400249481201 0.447300136089325 7.583400249481201 0.9999001026153564 L 7.583400249481201 6.583499908447266 C 7.583400249481201 7.135200023651123 7.135200023651123 7.583400249481201 6.583499908447266 7.583400249481201 Z" stroke="none" fill="#fff"/></g></svg>