<svg xmlns="http://www.w3.org/2000/svg" width="34.5" height="31.05" viewBox="0 0 34.5 31.05"><path d="M10.9,16.8A6.9,6.9,0,1,0,4,9.9,6.9,6.9,0,0,0,10.9,16.8Zm0-3.45A3.45,3.45,0,1,0,7.45,9.9,3.45,3.45,0,0,0,10.9,13.35Z" transform="translate(-0.55 -3)" fill="#fff" fill-rule="evenodd"/><path d="M17.525,15.45a1.725,1.725,0,0,1,1.725,1.725v10.35H22.7V17.175A5.175,5.175,0,0,0,17.525,12H7.175A5.175,5.175,0,0,0,2,17.175v10.35H5.45V17.175A1.725,1.725,0,0,1,7.175,15.45Z" transform="translate(-2 3.525)" fill="#fff"/><path d="M26.35,11H16v3.45H26.35Z" transform="translate(8.15 2.8)" fill="#fff"/><path d="M16,15H26.35v3.45H16Z" transform="translate(8.15 5.7)" fill="#fff"/><path d="M26.35,7H16v3.45H26.35Z" transform="translate(8.15 -0.1)" fill="#fff"/></svg>