<svg xmlns="http://www.w3.org/2000/svg" width="23.676" height="23.676" viewBox="0 0 23.676 23.676"><g transform="translate(-48.5 -255.676)"><g transform="translate(48.5 255.676)"><path d="M-3496.162,268.676a11.762,11.762,0,0,1-8.371-3.467,11.76,11.76,0,0,1-3.467-8.37,11.761,11.761,0,0,1,3.467-8.371,11.762,11.762,0,0,1,8.371-3.467,11.76,11.76,0,0,1,8.37,3.467,11.762,11.762,0,0,1,3.467,8.371,11.76,11.76,0,0,1-3.467,8.37A11.76,11.76,0,0,1-3496.162,268.676Zm.069-7.533a7.548,7.548,0,0,0-6.174,3.215,9.7,9.7,0,0,0,6.1,2.165,9.693,9.693,0,0,0,6.192-2.237A7.556,7.556,0,0,0-3496.092,261.143Zm-.069-11.839a4.31,4.31,0,0,0-4.3,4.3,4.31,4.31,0,0,0,4.3,4.3,4.31,4.31,0,0,0,4.3-4.3A4.31,4.31,0,0,0-3496.162,249.3Z" transform="translate(3508 -245)" fill="#0285cd"/></g></g></svg>