<svg xmlns="http://www.w3.org/2000/svg" width="20.402" height="20.403" viewBox="0 0 20.402 20.403"><path d="M17.958,23.686H4.979A2.732,2.732,0,0,1,2.25,20.958V7.979A2.732,2.732,0,0,1,4.979,5.25h6.49a.874.874,0,1,1,0,1.749H4.979a.981.981,0,0,0-.98.98V20.958a.981.981,0,0,0,.98.98H17.958a.981.981,0,0,0,.98-.98v-6.49a.874.874,0,1,1,1.749,0v6.49A2.732,2.732,0,0,1,17.958,23.686Z" transform="translate(-2.25 -3.283)" fill="#393c46"/><path d="M23.249,2.068a2.841,2.841,0,0,1,2.009,4.85l-8.807,8.807a.874.874,0,0,1-.406.23l-3.708.927a.874.874,0,0,1-1.06-1.06l.927-3.708a.874.874,0,0,1,.23-.406L21.24,2.9A2.822,2.822,0,0,1,23.249,2.068ZM15.386,14.317l8.636-8.636a1.092,1.092,0,1,0-1.545-1.545l-8.636,8.636-.515,2.06Z" transform="translate(-5.688 -2.068)" fill="#393c46"/></svg>