<svg xmlns="http://www.w3.org/2000/svg" width="35.867" height="34.863" viewBox="0 0 35.867 34.863"><path d="M953.675,729.735h-2.938a1.11,1.11,0,0,0-1.109,1.109v4.425H945.2a1.109,1.109,0,0,0-1.108,1.109v2.938a1.109,1.109,0,0,0,1.108,1.109h4.428v4.425a1.111,1.111,0,0,0,1.109,1.11h2.938a1.111,1.111,0,0,0,1.109-1.11v-4.425h4.423a1.11,1.11,0,0,0,1.109-1.109v-2.938a1.11,1.11,0,0,0-1.109-1.109h-4.423v-4.425A1.11,1.11,0,0,0,953.675,729.735Zm5.163,7.011v2.2h-4.793a.738.738,0,0,0-.739.738v4.8h-2.2v-4.8a.738.738,0,0,0-.739-.738h-4.8v-2.2h4.8a.738.738,0,0,0,.739-.738v-4.8h2.2v4.8a.738.738,0,0,0,.739.738Z" transform="translate(-944.092 -729.735)" fill="#fff"/><path d="M989.27,786.055v2.938a1.111,1.111,0,0,0,1.109,1.11h14.006a1.11,1.11,0,0,0,1.109-1.11v-2.938a1.11,1.11,0,0,0-1.109-1.109H990.379A1.111,1.111,0,0,0,989.27,786.055Zm1.477.368h13.271v2.2H990.747Z" transform="translate(-969.961 -761.349)" fill="#fff"/><path d="M1006.277,746.731v-2.938a1.11,1.11,0,0,0-1.109-1.108H991.162a1.11,1.11,0,0,0-1.109,1.109v2.937a1.11,1.11,0,0,0,1.109,1.109h14.007A1.11,1.11,0,0,0,1006.277,746.731Zm-1.477-.367H991.53v-2.2H1004.8Z" transform="translate(-970.41 -737.15)" fill="#fff"/><path d="M1004.788,770.64a2.563,2.563,0,0,0-2.56,2.56v.044a2.578,2.578,0,0,0,5.156,0V773.2a2.563,2.563,0,0,0-2.559-2.56Zm1.12,2.56v.044a1.1,1.1,0,0,1-2.2,0V773.2a1.084,1.084,0,0,1,1.083-1.083h.037A1.084,1.084,0,0,1,1005.907,773.2Z" transform="translate(-977.381 -753.158)" fill="#fff"/><path d="M1004.788,799.224a2.563,2.563,0,0,0-2.56,2.56v.044a2.578,2.578,0,0,0,5.156,0v-.044a2.563,2.563,0,0,0-2.559-2.56Zm1.12,2.56v.044a1.1,1.1,0,0,1-2.2,0v-.044a1.084,1.084,0,0,1,1.083-1.083h.037A1.084,1.084,0,0,1,1005.907,801.784Z" transform="translate(-977.381 -769.525)" fill="#fff"/><path d="M948.714,788.013a2.005,2.005,0,0,0,.936.237,1.847,1.847,0,0,0,1.317-.549l2.593-2.593,2.592,2.592a1.9,1.9,0,0,0,2.643,0l1.539-1.54a1.108,1.108,0,0,0,0-1.568l-3.129-3.13,3.127-3.126a1.109,1.109,0,0,0,0-1.568l-2.075-2.074a1.1,1.1,0,0,0-.784-.328h0a1.1,1.1,0,0,0-.785.325l-3.126,3.126-3.128-3.127a1.1,1.1,0,0,0-.785-.326h0a1.1,1.1,0,0,0-.783.325l-2.08,2.079a1.111,1.111,0,0,0,0,1.566l3.129,3.129-2.678,2.678a1.232,1.232,0,0,0-.229.308,1.91,1.91,0,0,0,.315,2.251l1.092,1.093A1.228,1.228,0,0,0,948.714,788.013Zm-.415-2.848,3.182-3.181a.738.738,0,0,0,0-1.044l-3.391-3.392,1.558-1.557,3.391,3.391a.738.738,0,0,0,1.044,0l3.388-3.388,1.557,1.556-3.388,3.389a.737.737,0,0,0,0,1.044l3.391,3.391-1.279,1.28a.421.421,0,0,1-.556,0l-3.114-3.114a.761.761,0,0,0-1.044,0l-3.115,3.115a.418.418,0,0,1-.492.065l-1.067-1.068A.416.416,0,0,1,948.3,785.165Z" transform="translate(-945.449 -755.289)" fill="#fff"/></svg>