<svg xmlns="http://www.w3.org/2000/svg" width="36.47" height="36.47" viewBox="0 0 36.47 36.47"><path d="M954.985,367.877h0a18.235,18.235,0,0,1-18.235-18.235h0a18.235,18.235,0,0,1,18.235-18.235h0a18.235,18.235,0,0,1,18.235,18.235h0A18.235,18.235,0,0,1,954.985,367.877Z" transform="translate(-936.75 -331.407)" fill="#00aeef"/><g transform="translate(13.534 8.104)"><path d="M969.161,355.549h-2.825v10.119h-4.214V355.549H960.13v-3.566h1.991v-2.316a5.011,5.011,0,0,1,.324-1.829,3.554,3.554,0,0,1,1.274-1.69,4.446,4.446,0,0,1,2.64-.741l3.126.023V348.9h-2.269a.9.9,0,0,0-.579.185.974.974,0,0,0-.3.787v2.107h3.2Z" transform="translate(-960.13 -345.407)" fill="#fff"/></g></svg>