<svg xmlns="http://www.w3.org/2000/svg" width="24.325" height="29.403" viewBox="0 0 24.325 29.403"><g transform="translate(-7671.254 -1320.594)"><g transform="translate(7671.254 1320.594)"><path d="M7.054,30.524A4.054,4.054,0,0,1,3,26.47V12.956q0-.069.007-.136H3a2.935,2.935,0,0,1,.86-2.075L12.3,2.309a4.054,4.054,0,0,1,5.733,0l8.436,8.436a2.935,2.935,0,0,1,.86,2.075h-.007q.007.067.007.136V26.47a4.054,4.054,0,0,1-4.054,4.054Zm9.064-26.3,8.5,8.5V26.47a1.351,1.351,0,0,1-1.351,1.351H19.217V21.064a4.054,4.054,0,1,0-8.108,0v6.757H7.054A1.351,1.351,0,0,1,5.7,26.47V12.724l8.5-8.5A1.351,1.351,0,0,1,16.118,4.22Z" transform="translate(-3 -1.121)" fill="#fff" fill-rule="evenodd"/></g></g></svg>