<svg xmlns="http://www.w3.org/2000/svg" width="36.47" height="36.47" viewBox="0 0 36.47 36.47"><g transform="translate(8.162 8.104)"><path d="M1033.422,345.92a10.441,10.441,0,0,1,5.071,1.274,9.584,9.584,0,0,1,3.612,3.358,8.728,8.728,0,0,1,1.389,4.747,8.618,8.618,0,0,1-1.389,4.724,9.35,9.35,0,0,1-3.612,3.358,10.289,10.289,0,0,1-5.071,1.3,10.735,10.735,0,0,1-2.894-.394l-3.427,1.9v-3.589a9.672,9.672,0,0,1-2.732-3.2,8.61,8.61,0,0,1-1.019-4.1,8.731,8.731,0,0,1,1.389-4.747,9.591,9.591,0,0,1,3.612-3.358,10.633,10.633,0,0,1,5.071-1.3v.024Zm6.507,6.738L1035,355.414l-2.64-2.755-5.511,5.882,5.025-2.756,2.546,2.756Z" transform="translate(-1023.349 -345.896)"/></g><path d="M1027.485,368.387h0a18.235,18.235,0,0,1-18.235-18.235h0a18.235,18.235,0,0,1,18.235-18.235h0a18.235,18.235,0,0,1,18.235,18.235h0A18.234,18.234,0,0,1,1027.485,368.387Z" transform="translate(-1009.25 -331.917)" fill="#00aeef"/><g transform="translate(8.162 8.104)"><path d="M1033.422,345.92a10.441,10.441,0,0,1,5.071,1.274,9.584,9.584,0,0,1,3.612,3.358,8.728,8.728,0,0,1,1.389,4.747,8.618,8.618,0,0,1-1.389,4.724,9.35,9.35,0,0,1-3.612,3.358,10.289,10.289,0,0,1-5.071,1.3,10.735,10.735,0,0,1-2.894-.394l-3.427,1.9v-3.589a9.672,9.672,0,0,1-2.732-3.2,8.61,8.61,0,0,1-1.019-4.1,8.731,8.731,0,0,1,1.389-4.747,9.591,9.591,0,0,1,3.612-3.358,10.633,10.633,0,0,1,5.071-1.3v.024Zm6.507,6.738L1035,355.414l-2.64-2.755-5.511,5.882,5.025-2.756,2.546,2.756Z" transform="translate(-1023.349 -345.896)" fill="#fff"/></g></svg>