<svg xmlns="http://www.w3.org/2000/svg" width="54" height="54" viewBox="0 0 54 54"><path d="M51,3H9A5.973,5.973,0,0,0,3.03,9L3,51a6,6,0,0,0,6,6H51a6.018,6.018,0,0,0,6-6V9A6.018,6.018,0,0,0,51,3Zm0,48H9V18H51Z" transform="translate(-3 -3)" fill="#eebc1a"/><path d="M11,8h2.627v5.254h3.941v2.627H11Z" transform="translate(13.686 19.246)" fill="#eebc1a"/><path d="M3,14.823A11.823,11.823,0,1,1,14.823,26.645,11.823,11.823,0,0,1,3,14.823Zm2.627,0a9.2,9.2,0,1,1,9.2,9.2A9.2,9.2,0,0,1,5.627,14.823Z" transform="translate(12.177 16.677)" fill="#eebc1a" fill-rule="evenodd"/></svg>