<svg xmlns="http://www.w3.org/2000/svg" width="31.818" height="26.847" viewBox="0 0 31.818 26.847"><path d="M12.9,38.191H30.8a1,1,0,0,0,.994-.994V34.711a1,1,0,0,0-.994-.994H12.9a1,1,0,0,0-.994.994V37.2A1,1,0,0,0,12.9,38.191Zm0,9.943H30.8a1,1,0,0,0,.994-.994V44.653a1,1,0,0,0-.994-.994H12.9a1,1,0,0,0-.994.994v2.486A1,1,0,0,0,12.9,48.133Zm0,9.943H30.8a1,1,0,0,0,.994-.994V54.6A1,1,0,0,0,30.8,53.6H12.9a1,1,0,0,0-.994.994v2.486A1,1,0,0,0,12.9,58.076Zm-8.948-5.22a2.983,2.983,0,1,0,0,5.966,2.983,2.983,0,0,0,0-5.966ZM9.7,34.276,5.215,38.762l-.969.969a.792.792,0,0,1-1.094,0L.194,36.786a.746.746,0,0,1,0-1.056l.976-.976a.746.746,0,0,1,1.056,0l1.411,1.373L7.6,32.194a.746.746,0,0,1,1.056,0l1.056,1.025A.752.752,0,0,1,9.7,34.276Zm0,9.918L5.215,48.68l-.976.976a.792.792,0,0,1-1.094,0L.194,46.7a.746.746,0,0,1,0-1.056l.976-.976a.746.746,0,0,1,1.056,0l1.411,1.373L7.6,42.087a.746.746,0,0,1,1.056,0l1.056,1.056a.745.745,0,0,1-.006,1.05Z" transform="translate(0.025 -31.975)" fill="#fff"/></svg>