<svg xmlns="http://www.w3.org/2000/svg" width="31.226" height="30" viewBox="0 0 31.226 30"><path d="M-547.578,617.632a14.133,14.133,0,0,1,.45-1.856,7.406,7.406,0,0,1,6.007-4.916.915.915,0,0,1,.715.172,10.249,10.249,0,0,0,5.792,1.883,9.315,9.315,0,0,0,5.547-1.548,2.487,2.487,0,0,1,2.481-.235,7.454,7.454,0,0,1,5.221,6.4,3.465,3.465,0,0,1,.022.639.39.39,0,0,1-.117.255c-.775.656-1.557,1.3-2.391,2-.173-.191-.335-.384-.512-.561-.438-.438-.864-.892-1.331-1.3a1.637,1.637,0,0,0-2.176.008,9.877,9.877,0,0,0-.968.969,1.658,1.658,0,0,0-.021,2.155c.192.235.415.446.629.663.256.259.518.512.834.824-.5.065-.92.132-1.347.173a58.629,58.629,0,0,1-10.777.057,27.3,27.3,0,0,1-6.592-1.274c-.134-.046-.264-.107-.4-.146a1.514,1.514,0,0,1-1.068-.946Z" transform="translate(547.578 -594.703)" fill="#fff"/><path d="M-455.877,373.764a7.781,7.781,0,0,1-7.771-7.749,7.781,7.781,0,0,1,7.756-7.792A7.793,7.793,0,0,1-448.115,366,7.792,7.792,0,0,1-455.877,373.764Zm3.728-4.685h-7.309a2.114,2.114,0,0,0,.912,1.2,4.9,4.9,0,0,0,5.139.221A2.372,2.372,0,0,0-452.149,369.079Z" transform="translate(469.01 -358.224)" fill="#fff"/><path d="M-238.072,710.591l3.861-3.218q.971-.81,1.942-1.62c.442-.368.688-.349,1.053.083q.216.256.428.516c.362.442.338.676-.108,1.048l-3.231,2.692-3.559,2.964c-.4.337-.633.33-1-.035q-1.64-1.636-3.276-3.276c-.391-.392-.388-.635.007-1.033q.225-.227.453-.453c.425-.424.657-.427,1.075-.009l2.134,2.133C-238.228,710.448-238.16,710.508-238.072,710.591Z" transform="translate(261.762 -683.303)" fill="#fff"/></svg>