<svg xmlns="http://www.w3.org/2000/svg" width="33.769" height="32" viewBox="0 0 33.769 32"><path d="M32.177,10.946,22.906,10.1a1.349,1.349,0,0,1-1.264-.983L18.271.973a1.621,1.621,0,0,0-2.95,0L12.09,8.98a1.691,1.691,0,0,1-1.4.983l-9.271.983a1.576,1.576,0,0,0-.843,2.809L7.6,19.936a1.671,1.671,0,0,1,.562,1.545L6.05,30.049a1.556,1.556,0,0,0,2.388,1.686l7.725-4.495a1.791,1.791,0,0,1,1.686,0l7.725,4.495a1.608,1.608,0,0,0,2.388-1.686l-2.107-8.568a1.4,1.4,0,0,1,.562-1.545l7.023-6.18A1.82,1.82,0,0,0,32.177,10.946Z" transform="translate(0.026 -0.025)" fill="#fff"/></svg>