<svg xmlns="http://www.w3.org/2000/svg" width="29.313" height="28.758" viewBox="0 0 29.313 28.758"><path d="M134.281,300.7h-6.953a4.136,4.136,0,0,0-4.131,4.131v2.149a7.568,7.568,0,0,0-6.881,7.527V321.9a7.568,7.568,0,0,0,7.559,7.559H138.07a7.509,7.509,0,0,0,3.656-.946c.017-.01.035-.018.051-.029a7.563,7.563,0,0,0,3.852-6.584v-7.392a7.568,7.568,0,0,0-7.217-7.551v-2.125A4.136,4.136,0,0,0,134.281,300.7Zm9.668,21.2a5.859,5.859,0,0,1-1.808,4.232V310.278a5.859,5.859,0,0,1,1.808,4.232ZM118,314.511a5.857,5.857,0,0,1,1.9-4.317v16.025A5.857,5.857,0,0,1,118,321.9Zm16.285-12.127a2.454,2.454,0,0,1,2.451,2.451v2.117h-1.8v-1.185a2.441,2.441,0,0,0-2.438-2.439h-3.377a2.441,2.441,0,0,0-2.438,2.439v1.185h-1.8v-2.117a2.454,2.454,0,0,1,2.452-2.451Zm6.192,6.767a.875.875,0,0,0-.012.118v18a5.836,5.836,0,0,1-2.128.5V308.645A5.823,5.823,0,0,1,140.473,309.15Zm-15.088,18.631v-19.15h11.269v19.15Zm-3.808-.468V309.269a.84.84,0,0,0-.016-.161,5.844,5.844,0,0,1,2.144-.468v19.133A5.845,5.845,0,0,1,121.577,327.313Zm11.675-20.362h-4.894v-1.185a.76.76,0,0,1,.759-.759h3.377a.759.759,0,0,1,.758.759Z" transform="translate(-116.316 -300.704)" fill="#fff"/></svg>