<svg xmlns="http://www.w3.org/2000/svg" width="30.673" height="30.673" viewBox="0 0 30.673 30.673"><g transform="translate(30.673) rotate(90)"><circle cx="15.337" cy="15.337" r="15.337" fill="#727c8e" opacity="0.2"/><g transform="translate(15.337 6.603) rotate(45)" fill="#fff"><path d="M 9.224100112915039 9.723999977111816 L 0.9998999834060669 9.723999977111816 C 0.7242499589920044 9.723999977111816 0.5 9.499750137329102 0.5 9.224100112915039 L 0.5 7.816500186920166 C 0.5 7.540850162506104 0.7242499589920044 7.31659984588623 0.9998999834060669 7.31659984588623 L 6.81659984588623 7.31659984588623 L 7.31659984588623 7.31659984588623 L 7.31659984588623 6.81659984588623 L 7.31659984588623 0.9998999834060669 C 7.31659984588623 0.7242499589920044 7.540850162506104 0.5 7.816500186920166 0.5 L 9.224100112915039 0.5 C 9.499750137329102 0.5 9.723999977111816 0.7242499589920044 9.723999977111816 0.9998999834060669 L 9.723999977111816 7.816500186920166 L 9.723999977111816 9.224100112915039 C 9.723999977111816 9.499750137329102 9.499750137329102 9.723999977111816 9.224100112915039 9.723999977111816 Z" stroke="none"/><path d="M 9.224100112915039 9.223999977111816 L 9.223999977111816 9.223999977111816 L 9.224100112915039 1 L 7.81659984588623 0.9998999834060669 L 7.81659984588623 7.81659984588623 L 1 7.816500186920166 L 0.9998999834060669 9.223999977111816 L 9.224100112915039 9.223999977111816 M 9.224100112915039 10.22399997711182 L 0.9998999834060669 10.22399997711182 C 0.447299987077713 10.22399997711182 -1.144409189635098e-08 9.776700019836426 -1.144409189635098e-08 9.224100112915039 L -1.144409189635098e-08 7.816500186920166 C -1.144409189635098e-08 7.263899803161621 0.447299987077713 6.81659984588623 0.9998999834060669 6.81659984588623 L 6.81659984588623 6.81659984588623 L 6.81659984588623 0.9998999834060669 C 6.81659984588623 0.447299987077713 7.263899803161621 -1.144409189635098e-08 7.816500186920166 -1.144409189635098e-08 L 9.224100112915039 -1.144409189635098e-08 C 9.776700019836426 -1.144409189635098e-08 10.22399997711182 0.447299987077713 10.22399997711182 0.9998999834060669 L 10.22399997711182 9.224100112915039 C 10.22399997711182 9.776700019836426 9.776700019836426 10.22399997711182 9.224100112915039 10.22399997711182 Z" stroke="none" fill="#fff"/></g></g></svg>