<svg xmlns="http://www.w3.org/2000/svg" width="16" height="16" viewBox="0 0 16 16"><g transform="translate(0.342 0.276)"><rect width="16" height="16" rx="6" transform="translate(-0.342 -0.276)" fill="#bfc4d3"/><g transform="translate(9.904 11.372) rotate(180)"><path d="M.117,3.558,3.345,6.5a.427.427,0,0,0,.564,0l.377-.343a.34.34,0,0,0,0-.513L1.728,3.3,4.286.962a.34.34,0,0,0,0-.513L3.909.106a.427.427,0,0,0-.564,0L.117,3.045A.34.34,0,0,0,.117,3.558Z" transform="translate(4.402 6.603) rotate(180)" fill="#fff"/></g></g></svg>