<svg xmlns="http://www.w3.org/2000/svg" width="29.104" height="29.104" viewBox="0 0 29.104 29.104"><rect width="28" height="28" transform="translate(0 0)" fill="none"/><path d="M3.638,9.1V25.466H25.466V9.1ZM23.647,3.638h3.638A1.719,1.719,0,0,1,29.1,5.457V27.285A1.719,1.719,0,0,1,27.285,29.1H1.819A1.719,1.719,0,0,1,0,27.285V5.457A1.719,1.719,0,0,1,1.819,3.638H5.457V1.819A1.719,1.719,0,0,1,7.276,0,1.719,1.719,0,0,1,9.1,1.819V3.638H20.009V1.819a1.819,1.819,0,1,1,3.638,0Zm-1.819,18.19H18.19V18.19h3.638Zm-5.457,0H12.733V18.19h3.638Zm5.457-5.457H18.19V12.733h3.638Zm-5.457,0H12.733V12.733h3.638Zm-5.457,5.457H7.276V18.19h3.638Z" transform="translate(0 0)" fill="#2699fb" fill-rule="evenodd"/></svg>