<svg xmlns="http://www.w3.org/2000/svg" width="33.061" height="25.953" viewBox="0 0 33.061 25.953"><path d="M60.792,77.968c-.139.747-.227,1.508-.426,2.237a11.688,11.688,0,0,1-3.952,6.087,11.891,11.891,0,0,1-6.455,2.667v2.1H27.738V90.38c0-1.033.025-2.066-.005-3.1a4.711,4.711,0,0,1,1.381-3.367,5.644,5.644,0,0,1,1.848-1.322c1.01-.473,2.016-.959,3.023-1.438.1-.045.194-.081.311-.13l2.493,5.185,1.254-3.39h1.584l1.193,3.22L43.244,81c.049,0,.085-.011.109,0,1.316.631,2.649,1.231,3.937,1.913a4.319,4.319,0,0,1,1.328,1.1,1.056,1.056,0,0,0,1.106.4,7.4,7.4,0,0,0,.469-14.63,7.2,7.2,0,0,0-5.729,1.329c-.1.071-.2.256-.175.347a7.418,7.418,0,0,1-.152,4.592,7.7,7.7,0,0,1-2.813,4.061,4.151,4.151,0,0,1-5.36-.291,8.514,8.514,0,0,1-2.8-5.5,6.19,6.19,0,0,1,.436-3.406,5,5,0,0,1,3.686-2.886A6.83,6.83,0,0,1,40.6,68.1a.5.5,0,0,0,.519-.12,11.267,11.267,0,0,1,4.349-2.373,11.954,11.954,0,0,1,14.995,8.72c.148.624.222,1.265.329,1.9ZM43.987,70.6A8.084,8.084,0,0,1,56,73.318a7.714,7.714,0,0,1,.368,6.665,8.022,8.022,0,0,1-6.853,5.156l.51,1.777a9.925,9.925,0,0,0,2.818-18.952,9.687,9.687,0,0,0-9.974,1.23Z" transform="translate(-27.731 -65.103)" fill="#fff"/></svg>