<svg xmlns="http://www.w3.org/2000/svg" xmlns:xlink="http://www.w3.org/1999/xlink" width="36.244" height="48" viewBox="0 0 36.244 48"><defs><clipPath id="a"><path d="M90.355,83.185l-1.082,1.082L88.19,83.185l-4.654-4.654L85.7,76.366l3.571,3.571,6.021-6.021,2.164,2.164Zm.154,6.307a10.4,10.4,0,1,0-10.4-10.4A10.4,10.4,0,0,0,90.509,89.492Z" transform="translate(-80.11 -68.693)" fill="none" clip-rule="evenodd"/></clipPath><linearGradient id="b" x1="0.321" y1="0.859" x2="0.887" y2="-0.276" gradientUnits="objectBoundingBox"><stop offset="0" stop-color="#78c002"/><stop offset="1" stop-color="#a1f122"/></linearGradient></defs><g transform="translate(-65.337 -54.093)"><path d="M89.7,61.061a12.7,12.7,0,1,1-5.456-1.616A12.7,12.7,0,0,1,89.7,61.061m-6.244-6.968A18.08,18.08,0,0,0,66.19,66.826c-3.33,10.757,3.766,17.294,9.6,25.061l7.668,10.206,7.668-10.206c5.835-7.767,12.931-14.3,9.6-25.061A18.08,18.08,0,0,0,83.459,54.093Z" transform="translate(0 0)" fill="#042d4d" fill-rule="evenodd"/><g transform="translate(73.061 61.726)"><g transform="translate(0 0)" clip-path="url(#a)"><rect width="20.797" height="20.798" transform="translate(0 0)" fill="url(#b)"/></g></g></g></svg>