<svg xmlns="http://www.w3.org/2000/svg" xmlns:xlink="http://www.w3.org/1999/xlink" width="30" height="30" viewBox="0 0 30 30"><defs><clipPath id="a"><rect width="30" height="30" transform="translate(-876 33)" fill="#fff"/></clipPath></defs><g transform="translate(876 -33)" clip-path="url(#a)"><path d="M8.585,109.846a7.528,7.528,0,0,0-7.516,7.516v14.967a7.527,7.527,0,0,0,7.516,7.516H23.552a7.528,7.528,0,0,0,7.516-7.516V117.362a7.528,7.528,0,0,0-7.516-7.516Zm0,2.511H23.552a4.967,4.967,0,0,1,5.006,5.005v14.967a4.967,4.967,0,0,1-5.006,5H8.585a4.966,4.966,0,0,1-5.005-5V117.362a4.967,4.967,0,0,1,5.005-5.005Zm7.779,3.828a1.255,1.255,0,0,0-1.237,1.272v6.05H9.077a1.255,1.255,0,1,0,0,2.51h6.049v6.049a1.256,1.256,0,1,0,2.512,0v-6.049h6.049a1.255,1.255,0,1,0,0-2.51H17.638v-6.05a1.255,1.255,0,0,0-1.274-1.272Z" transform="translate(-877.068 -76.846)" fill="#fff"/></g></svg>