<svg xmlns="http://www.w3.org/2000/svg" width="37.415" height="18.708" viewBox="0 0 37.415 18.708"><path d="M1.169,98.581H36.246a1.169,1.169,0,1,0,0-2.338H1.169a1.169,1.169,0,0,0,0,2.338Z" transform="translate(0 -96.243)" fill="#fff"/><path d="M36.246,180.455H1.169a1.169,1.169,0,0,0,0,2.338H36.246a1.169,1.169,0,0,0,0-2.338Z" transform="translate(0 -172.27)" fill="#fff"/><path d="M144.857,264.667H121.472a1.169,1.169,0,1,0,0,2.338h23.385a1.169,1.169,0,1,0,0-2.338Z" transform="translate(-108.611 -248.298)" fill="#fff"/></svg>