<svg xmlns="http://www.w3.org/2000/svg" xmlns:xlink="http://www.w3.org/1999/xlink" width="96" height="96" viewBox="0 0 96 96"><defs><filter id="a" x="0" y="0" width="96" height="96" filterUnits="userSpaceOnUse"><feOffset dy="5" input="SourceAlpha"/><feGaussianBlur stdDeviation="4" result="b"/><feFlood flood-opacity="0.161"/><feComposite operator="in" in2="b"/><feComposite in="SourceGraphic"/></filter><clipPath id="c"><rect width="45.841" height="0.908" transform="translate(0 0)" fill="#0285cd"/></clipPath></defs><g transform="translate(-283.28 -347.28)"><g transform="matrix(1, 0, 0, 1, 283.28, 347.28)" filter="url(#a)"><circle cx="36" cy="36" r="36" transform="translate(12 7)" fill="#ddeffe"/></g><g transform="translate(308.361 362.176)" opacity="0.76"><g transform="translate(1.959)"><g transform="translate(0 0.001)"><path d="M204.043,219.9a5.793,5.793,0,0,0-11.122,3.2c2.085,7.25,9.713,13.756,16.7,19.285a1.159,1.159,0,0,0,1.439-1.817c-6.706-5.306-14.016-11.518-15.911-18.108a3.478,3.478,0,0,1,6.685-1.921c1.265,4.4,7.556,9.843,13.541,14.579a1.159,1.159,0,1,0,1.439-1.817C213.652,230.807,205.283,224.185,204.043,219.9Z" transform="translate(-178.787 -192.5)" fill="#0285cd"/><path d="M105.808,138.951a15.061,15.061,0,0,0-28.822,8.741l0,.017c1.9,6.608-2.176,8.441-3.476,8.844a1.159,1.159,0,1,0,.7,2.21c3.543-1.107,6.984-4.833,5.007-11.7a12.744,12.744,0,0,1,8.718-15.774l.011,0a12.816,12.816,0,0,1,15.71,8.545,1.1,1.1,0,0,0,.116.257c.12.2.368.619,7.815,6.661a1.159,1.159,0,1,0,1.462-1.8C110.343,142.761,106.387,139.5,105.808,138.951Z" transform="translate(-71.77 -114.54)" fill="#0285cd"/><path d="M131.871,178.568a10.445,10.445,0,0,0-12.9-7.139,10.635,10.635,0,0,0-7.157,12.832c2.34,10.658.591,13.119-4.21,14.621a1.159,1.159,0,0,0,.7,2.21c6.708-2.085,8.165-6.469,5.793-17.329a8.341,8.341,0,0,1,5.533-10.107,8.135,8.135,0,0,1,10.035,5.561c.464,1.58,1.694,3.749,11.182,11.259a1.159,1.159,0,0,0,1.439-1.817C133.669,181.847,132.2,179.689,131.871,178.568Z" transform="translate(-102.157 -152.451)" fill="#0285cd"/><path d="M249.156,270.9c-3.92-2.975-10.482-7.952-12.1-13.564a1.159,1.159,0,0,0-2.227.639c1.826,6.353,8.772,11.622,12.922,14.771a30.759,30.759,0,0,1,2.433,1.946,1.158,1.158,0,0,0,1.638-1.638A30.4,30.4,0,0,0,249.156,270.9Z" transform="translate(-216.254 -228.657)" fill="#0285cd"/><path d="M223.836,430.933a7.568,7.568,0,0,0-5.779-3.925c-3.939,0-4.548,6.7-4.634,8.038a1.159,1.159,0,0,0,1.084,1.228h.074a1.159,1.159,0,0,0,1.159-1.087c.146-2.387,1.059-5.862,2.317-5.862,1.717,0,2.936,1.654,3.914,2.982a12.5,12.5,0,0,0,1.059,1.311,1.159,1.159,0,0,0,1.638-1.638A10.292,10.292,0,0,1,223.836,430.933Z" transform="translate(-197.204 -380.63)" fill="#0285cd"/><path d="M156.25,364.158a1.159,1.159,0,0,0-2.208.7c.992,3.1-.957,9.178-3.888,10.13a1.159,1.159,0,1,0,.692,2.211l.024-.008C155.328,375.75,157.478,368.006,156.25,364.158Z" transform="translate(-140.084 -323.925)" fill="#0285cd"/><path d="M105.014,100.791c-1.448-.463-2.586-2.317-3.9-4.433C98.32,91.849,94.495,85.674,83.8,85.674a19.718,19.718,0,0,0-19.695,19.7,1.159,1.159,0,1,0,2.317,0A17.4,17.4,0,0,1,83.8,87.991c9.4,0,12.693,5.315,15.339,9.588,1.557,2.514,2.9,4.685,5.158,5.417a1.158,1.158,0,1,0,.74-2.2l-.024-.008Z" transform="translate(-64.109 -76.37)" fill="#0285cd"/><path d="M66.425,304.8a1.159,1.159,0,0,0,1.036-1.678,10.268,10.268,0,0,1-1.036-2.956,1.159,1.159,0,1,0-2.317,0,11.844,11.844,0,0,0,1.281,3.995A1.159,1.159,0,0,0,66.425,304.8Z" transform="translate(-64.108 -266.533)" fill="#0285cd"/><path d="M75.327,52.107a1.159,1.159,0,0,0,1.592-.386l0,0c1.006-1.659,5.959-6.393,15.228-6.393,8.907,0,15.244,4.511,16.386,6.393a1.159,1.159,0,1,0,1.981-1.2h0c-1.59-2.618-8.608-7.507-18.367-7.507-10.378,0-15.941,5.42-17.211,7.51A1.159,1.159,0,0,0,75.327,52.107Z" transform="translate(-73.612 -38.338)" fill="#0285cd"/><path d="M129.343,4.575c.531-.232.98-.463,1.406-.7,1.742-.878,3-1.52,8.557-1.52a26.281,26.281,0,0,1,11.013,1.763c.443.165.887.329,1.353.489a1.173,1.173,0,0,0,.378.065,1.159,1.159,0,0,0,.378-2.254c-.45-.155-.876-.313-1.3-.463A28.569,28.569,0,0,0,139.306.043c-6.126,0-7.66.788-9.607,1.786-.392.2-.809.415-1.3.633a1.159,1.159,0,0,0,.856,2.153q.046-.018.089-.04Z" transform="translate(-120.769 -0.007)" fill="#0285cd"/><path d="M407.789,134.558a1.159,1.159,0,0,0,2.208-.7,29.231,29.231,0,0,0-2.435-4.889,1.159,1.159,0,0,0-1.974,1.214A27.432,27.432,0,0,1,407.789,134.558Z" transform="translate(-368.346 -114.475)" fill="#0285cd"/></g><path d="M210.329,242.641a1.159,1.159,0,0,1-.718-.25c-6.986-5.531-14.607-12.035-16.692-19.285a5.793,5.793,0,0,1,11.122-3.2c1.233,4.284,9.6,10.909,12.744,13.4a1.158,1.158,0,1,1-1.381,1.861l-.056-.044c-5.985-4.736-12.28-10.174-13.543-14.579a3.476,3.476,0,0,0-6.682,1.921c1.9,6.59,9.206,12.8,15.909,18.108a1.159,1.159,0,0,1-.721,2.067Z" transform="translate(-178.785 -192.504)" fill="#0285cd"/><path d="M73.818,158.806a1.159,1.159,0,0,1-.345-2.264c1.3-.405,5.373-2.238,3.476-8.844a15.061,15.061,0,0,1,10.311-18.637l.012,0a15.151,15.151,0,0,1,18.5,9.889c.577.542,4.532,3.809,7.238,6.006a1.159,1.159,0,0,1-1.46,1.8c-7.449-6.045-7.7-6.465-7.818-6.664a1.166,1.166,0,0,1-.114-.255,12.743,12.743,0,0,0-24.441,7.222v0c1.974,6.861-1.464,10.589-5.01,11.7A1.147,1.147,0,0,1,73.818,158.806Z" transform="translate(-71.733 -114.534)" fill="#0285cd"/><path d="M107.951,201.158a1.159,1.159,0,0,1-.345-2.264c4.8-1.5,6.548-3.967,4.208-14.621a10.638,10.638,0,0,1,7.157-12.832,10.455,10.455,0,0,1,12.9,7.139c.322,1.119,1.793,3.276,10.392,10.084a1.159,1.159,0,0,1-1.381,1.861l-.056-.044c-9.5-7.512-10.73-9.683-11.182-11.259a8.126,8.126,0,0,0-10.037-5.561,8.341,8.341,0,0,0-5.531,10.119c2.384,10.862.927,15.235-5.793,17.329A1.138,1.138,0,0,1,107.951,201.158Z" transform="translate(-102.159 -152.463)" fill="#0285cd"/><path d="M250.937,274.716a1.158,1.158,0,0,1-.82-.338,30.957,30.957,0,0,0-2.433-1.949c-4.15-3.149-11.1-8.418-12.922-14.771a1.159,1.159,0,1,1,2.216-.678l.011.039c1.622,5.612,8.175,10.589,12.1,13.564a30.655,30.655,0,0,1,2.672,2.157,1.159,1.159,0,0,1-.818,1.977Z" transform="translate(-216.182 -228.338)" fill="#0285cd"/><path d="M214.582,436.295h-.074a1.159,1.159,0,0,1-1.084-1.228c.083-1.342.7-8.038,4.634-8.038a7.577,7.577,0,0,1,5.793,3.927A9.964,9.964,0,0,0,224.68,432a1.159,1.159,0,0,1-1.638,1.638,12.133,12.133,0,0,1-1.059-1.309c-.987-1.335-2.206-2.989-3.925-2.989-1.256,0-2.171,3.476-2.317,5.865A1.158,1.158,0,0,1,214.582,436.295Z" transform="translate(-197.204 -380.648)" fill="#0285cd"/><path d="M150.583,376.4a1.159,1.159,0,0,1-.357-2.261c2.929-.952,4.866-7.032,3.888-10.13a1.158,1.158,0,1,1,2.163-.829,1.172,1.172,0,0,1,.042.134c1.23,3.849-.927,11.585-5.38,13.04A1.157,1.157,0,0,1,150.583,376.4Z" transform="translate(-140.156 -323.066)" fill="#0285cd"/><path d="M65.268,106.529a1.159,1.159,0,0,1-1.159-1.159A19.718,19.718,0,0,1,83.8,85.675c10.691,0,14.516,6.175,17.308,10.684,1.318,2.125,2.456,3.962,3.9,4.433a1.159,1.159,0,1,1-.692,2.211L104.3,103c-2.257-.732-3.6-2.9-5.158-5.417C96.5,93.307,93.2,87.992,83.8,87.992A17.4,17.4,0,0,0,66.426,105.37,1.158,1.158,0,0,1,65.268,106.529Z" transform="translate(-64.109 -76.37)" fill="#0285cd"/><path d="M66.426,304.8a1.158,1.158,0,0,1-1.038-.64,11.817,11.817,0,0,1-1.279-3.995,1.159,1.159,0,0,1,2.317,0,10.3,10.3,0,0,0,1.036,2.957,1.159,1.159,0,0,1-1.036,1.678Z" transform="translate(-64.109 -266.531)" fill="#0285cd"/><path d="M109.351,52.276a1.159,1.159,0,0,1-.992-.558c-1.14-1.881-7.479-6.393-16.386-6.393-9.268,0-14.222,4.734-15.23,6.393a1.159,1.159,0,0,1-2.022-1.131q.021-.037.044-.072c1.267-2.088,6.831-7.507,17.209-7.507,9.759,0,16.778,4.889,18.367,7.51a1.159,1.159,0,0,1-.989,1.759Z" transform="translate(-73.436 -38.337)" fill="#0285cd"/><path d="M152.469,4.671a1.157,1.157,0,0,1-.378-.063c-.463-.16-.913-.327-1.355-.489a26.287,26.287,0,0,0-11.011-1.766c-5.561,0-6.814.642-8.545,1.529-.426.22-.878.45-1.406.7a1.16,1.16,0,1,1-.938-2.122c.489-.22.9-.433,1.3-.635,1.932-1,3.469-1.784,9.593-1.784a28.558,28.558,0,0,1,11.817,1.909c.426.158.853.317,1.3.463a1.159,1.159,0,0,1-.376,2.261Z" transform="translate(-121.189 0)" fill="#0285cd"/><path d="M408.913,135.289a1.158,1.158,0,0,1-1.1-.806,27.506,27.506,0,0,0-2.2-4.379,1.159,1.159,0,0,1,1.974-1.214h0a29.251,29.251,0,0,1,2.433,4.889,1.159,1.159,0,0,1-1.1,1.511Z" transform="translate(-368.365 -114.398)" fill="#0285cd"/></g><g transform="translate(0 55.3)" clip-path="url(#c)"><g transform="translate(1.959 -55.3)"><g transform="translate(0 0.001)"><path d="M204.043,219.9a5.793,5.793,0,0,0-11.122,3.2c2.085,7.25,9.713,13.756,16.7,19.285a1.159,1.159,0,0,0,1.439-1.817c-6.706-5.306-14.016-11.518-15.911-18.108a3.478,3.478,0,0,1,6.685-1.921c1.265,4.4,7.556,9.843,13.541,14.579a1.159,1.159,0,1,0,1.439-1.817C213.652,230.807,205.283,224.185,204.043,219.9Z" transform="translate(-178.787 -192.5)" fill="#0285cd"/><path d="M105.808,138.951a15.061,15.061,0,0,0-28.822,8.741l0,.017c1.9,6.608-2.176,8.441-3.476,8.844a1.159,1.159,0,1,0,.7,2.21c3.543-1.107,6.984-4.833,5.007-11.7a12.744,12.744,0,0,1,8.718-15.774l.011,0a12.816,12.816,0,0,1,15.71,8.545,1.1,1.1,0,0,0,.116.257c.12.2.368.619,7.815,6.661a1.159,1.159,0,1,0,1.462-1.8C110.343,142.761,106.387,139.5,105.808,138.951Z" transform="translate(-71.77 -114.54)" fill="#0285cd"/><path d="M131.871,178.568a10.445,10.445,0,0,0-12.9-7.139,10.635,10.635,0,0,0-7.157,12.832c2.34,10.658.591,13.119-4.21,14.621a1.159,1.159,0,0,0,.7,2.21c6.708-2.085,8.165-6.469,5.793-17.329a8.341,8.341,0,0,1,5.533-10.107,8.135,8.135,0,0,1,10.035,5.561c.464,1.58,1.694,3.749,11.182,11.259a1.159,1.159,0,0,0,1.439-1.817C133.669,181.847,132.2,179.689,131.871,178.568Z" transform="translate(-102.157 -152.451)" fill="#0285cd"/><path d="M249.156,270.9c-3.92-2.975-10.482-7.952-12.1-13.564a1.159,1.159,0,0,0-2.227.639c1.826,6.353,8.772,11.622,12.922,14.771a30.759,30.759,0,0,1,2.433,1.946,1.158,1.158,0,0,0,1.638-1.638A30.4,30.4,0,0,0,249.156,270.9Z" transform="translate(-216.254 -228.657)" fill="#0285cd"/><path d="M223.836,430.933a7.568,7.568,0,0,0-5.779-3.925c-3.939,0-4.548,6.7-4.634,8.038a1.159,1.159,0,0,0,1.084,1.228h.074a1.159,1.159,0,0,0,1.159-1.087c.146-2.387,1.059-5.862,2.317-5.862,1.717,0,2.936,1.654,3.914,2.982a12.5,12.5,0,0,0,1.059,1.311,1.159,1.159,0,0,0,1.638-1.638A10.292,10.292,0,0,1,223.836,430.933Z" transform="translate(-197.204 -380.63)" fill="#0285cd"/><path d="M156.25,364.158a1.159,1.159,0,0,0-2.208.7c.992,3.1-.957,9.178-3.888,10.13a1.159,1.159,0,1,0,.692,2.211l.024-.008C155.328,375.75,157.478,368.006,156.25,364.158Z" transform="translate(-140.084 -323.925)" fill="#0285cd"/><path d="M105.014,100.791c-1.448-.463-2.586-2.317-3.9-4.433C98.32,91.849,94.495,85.674,83.8,85.674a19.718,19.718,0,0,0-19.695,19.7,1.159,1.159,0,1,0,2.317,0A17.4,17.4,0,0,1,83.8,87.991c9.4,0,12.693,5.315,15.339,9.588,1.557,2.514,2.9,4.685,5.158,5.417a1.158,1.158,0,1,0,.74-2.2l-.024-.008Z" transform="translate(-64.109 -76.37)" fill="#0285cd"/><path d="M66.425,304.8a1.159,1.159,0,0,0,1.036-1.678,10.268,10.268,0,0,1-1.036-2.956,1.159,1.159,0,1,0-2.317,0,11.844,11.844,0,0,0,1.281,3.995A1.159,1.159,0,0,0,66.425,304.8Z" transform="translate(-64.108 -266.533)" fill="#0285cd"/><path d="M75.327,52.107a1.159,1.159,0,0,0,1.592-.386l0,0c1.006-1.659,5.959-6.393,15.228-6.393,8.907,0,15.244,4.511,16.386,6.393a1.159,1.159,0,1,0,1.981-1.2h0c-1.59-2.618-8.608-7.507-18.367-7.507-10.378,0-15.941,5.42-17.211,7.51A1.159,1.159,0,0,0,75.327,52.107Z" transform="translate(-73.612 -38.338)" fill="#0285cd"/><path d="M129.343,4.575c.531-.232.98-.463,1.406-.7,1.742-.878,3-1.52,8.557-1.52a26.281,26.281,0,0,1,11.013,1.763c.443.165.887.329,1.353.489a1.173,1.173,0,0,0,.378.065,1.159,1.159,0,0,0,.378-2.254c-.45-.155-.876-.313-1.3-.463A28.569,28.569,0,0,0,139.306.043c-6.126,0-7.66.788-9.607,1.786-.392.2-.809.415-1.3.633a1.159,1.159,0,0,0,.856,2.153q.046-.018.089-.04Z" transform="translate(-120.769 -0.007)" fill="#0285cd"/><path d="M407.789,134.558a1.159,1.159,0,0,0,2.208-.7,29.231,29.231,0,0,0-2.435-4.889,1.159,1.159,0,0,0-1.974,1.214A27.432,27.432,0,0,1,407.789,134.558Z" transform="translate(-368.346 -114.475)" fill="#0285cd"/></g><path d="M210.329,242.641a1.159,1.159,0,0,1-.718-.25c-6.986-5.531-14.607-12.035-16.692-19.285a5.793,5.793,0,0,1,11.122-3.2c1.233,4.284,9.6,10.909,12.744,13.4a1.158,1.158,0,1,1-1.381,1.861l-.056-.044c-5.985-4.736-12.28-10.174-13.543-14.579a3.476,3.476,0,0,0-6.682,1.921c1.9,6.59,9.206,12.8,15.909,18.108a1.159,1.159,0,0,1-.721,2.067Z" transform="translate(-178.785 -192.504)" fill="#0285cd"/><path d="M73.818,158.806a1.159,1.159,0,0,1-.345-2.264c1.3-.405,5.373-2.238,3.476-8.844a15.061,15.061,0,0,1,10.311-18.637l.012,0a15.151,15.151,0,0,1,18.5,9.889c.577.542,4.532,3.809,7.238,6.006a1.159,1.159,0,0,1-1.46,1.8c-7.449-6.045-7.7-6.465-7.818-6.664a1.166,1.166,0,0,1-.114-.255,12.743,12.743,0,0,0-24.441,7.222v0c1.974,6.861-1.464,10.589-5.01,11.7A1.147,1.147,0,0,1,73.818,158.806Z" transform="translate(-71.733 -114.534)" fill="#0285cd"/><path d="M107.951,201.158a1.159,1.159,0,0,1-.345-2.264c4.8-1.5,6.548-3.967,4.208-14.621a10.638,10.638,0,0,1,7.157-12.832,10.455,10.455,0,0,1,12.9,7.139c.322,1.119,1.793,3.276,10.392,10.084a1.159,1.159,0,0,1-1.381,1.861l-.056-.044c-9.5-7.512-10.73-9.683-11.182-11.259a8.126,8.126,0,0,0-10.037-5.561,8.341,8.341,0,0,0-5.531,10.119c2.384,10.862.927,15.235-5.793,17.329A1.138,1.138,0,0,1,107.951,201.158Z" transform="translate(-102.159 -152.463)" fill="#0285cd"/><path d="M250.937,274.716a1.158,1.158,0,0,1-.82-.338,30.957,30.957,0,0,0-2.433-1.949c-4.15-3.149-11.1-8.418-12.922-14.771a1.159,1.159,0,1,1,2.216-.678l.011.039c1.622,5.612,8.175,10.589,12.1,13.564a30.655,30.655,0,0,1,2.672,2.157,1.159,1.159,0,0,1-.818,1.977Z" transform="translate(-216.182 -228.338)" fill="#0285cd"/><path d="M214.582,436.295h-.074a1.159,1.159,0,0,1-1.084-1.228c.083-1.342.7-8.038,4.634-8.038a7.577,7.577,0,0,1,5.793,3.927A9.964,9.964,0,0,0,224.68,432a1.159,1.159,0,0,1-1.638,1.638,12.133,12.133,0,0,1-1.059-1.309c-.987-1.335-2.206-2.989-3.925-2.989-1.256,0-2.171,3.476-2.317,5.865A1.158,1.158,0,0,1,214.582,436.295Z" transform="translate(-197.204 -380.648)" fill="#0285cd"/><path d="M150.583,376.4a1.159,1.159,0,0,1-.357-2.261c2.929-.952,4.866-7.032,3.888-10.13a1.158,1.158,0,1,1,2.163-.829,1.172,1.172,0,0,1,.042.134c1.23,3.849-.927,11.585-5.38,13.04A1.157,1.157,0,0,1,150.583,376.4Z" transform="translate(-140.156 -323.066)" fill="#0285cd"/><path d="M65.268,106.529a1.159,1.159,0,0,1-1.159-1.159A19.718,19.718,0,0,1,83.8,85.675c10.691,0,14.516,6.175,17.308,10.684,1.318,2.125,2.456,3.962,3.9,4.433a1.159,1.159,0,1,1-.692,2.211L104.3,103c-2.257-.732-3.6-2.9-5.158-5.417C96.5,93.307,93.2,87.992,83.8,87.992A17.4,17.4,0,0,0,66.426,105.37,1.158,1.158,0,0,1,65.268,106.529Z" transform="translate(-64.109 -76.37)" fill="#0285cd"/><path d="M66.426,304.8a1.158,1.158,0,0,1-1.038-.64,11.817,11.817,0,0,1-1.279-3.995,1.159,1.159,0,0,1,2.317,0,10.3,10.3,0,0,0,1.036,2.957,1.159,1.159,0,0,1-1.036,1.678Z" transform="translate(-64.109 -266.531)" fill="#0285cd"/><path d="M109.351,52.276a1.159,1.159,0,0,1-.992-.558c-1.14-1.881-7.479-6.393-16.386-6.393-9.268,0-14.222,4.734-15.23,6.393a1.159,1.159,0,0,1-2.022-1.131q.021-.037.044-.072c1.267-2.088,6.831-7.507,17.209-7.507,9.759,0,16.778,4.889,18.367,7.51a1.159,1.159,0,0,1-.989,1.759Z" transform="translate(-73.436 -38.337)" fill="#0285cd"/><path d="M152.469,4.671a1.157,1.157,0,0,1-.378-.063c-.463-.16-.913-.327-1.355-.489a26.287,26.287,0,0,0-11.011-1.766c-5.561,0-6.814.642-8.545,1.529-.426.22-.878.45-1.406.7a1.16,1.16,0,1,1-.938-2.122c.489-.22.9-.433,1.3-.635,1.932-1,3.469-1.784,9.593-1.784a28.558,28.558,0,0,1,11.817,1.909c.426.158.853.317,1.3.463a1.159,1.159,0,0,1-.376,2.261Z" transform="translate(-121.189 0)" fill="#0285cd"/><path d="M408.913,135.289a1.158,1.158,0,0,1-1.1-.806,27.506,27.506,0,0,0-2.2-4.379,1.159,1.159,0,0,1,1.974-1.214h0a29.251,29.251,0,0,1,2.433,4.889,1.159,1.159,0,0,1-1.1,1.511Z" transform="translate(-368.365 -114.398)" fill="#0285cd"/></g></g></g></g></svg>