<svg xmlns="http://www.w3.org/2000/svg" width="36.47" height="36.47" viewBox="0 0 36.47 36.47"><g transform="translate(8.162 8.104)"><path d="M825.989,633.073a1.471,1.471,0,0,1,1.065.428,1.389,1.389,0,0,1,.44,1.03V651.9a1.349,1.349,0,0,1-.44,1.019,1.465,1.465,0,0,1-1.042.417H808.831a1.461,1.461,0,0,1-1.042-.417,1.348,1.348,0,0,1-.44-1.019V634.531a1.387,1.387,0,0,1,.44-1.03,1.47,1.47,0,0,1,1.065-.428h17.135ZM813.184,639.2a1.621,1.621,0,0,0,0-2.269,1.682,1.682,0,0,0-1.227-.451,1.725,1.725,0,0,0-1.239.451,1.5,1.5,0,0,0-.475,1.135,1.517,1.517,0,0,0,.463,1.135,1.65,1.65,0,0,0,1.2.452h.023A1.71,1.71,0,0,0,813.184,639.2Zm.278,1.7h-3.033v9.146h3.033Zm10.953,3.89a4.436,4.436,0,0,0-1-3.1,3.6,3.6,0,0,0-4.33-.487,3.586,3.586,0,0,0-.9,1v-1.3h-3.033q.023.532,0,4.886v4.26h3.033v-5.117a2.272,2.272,0,0,1,.093-.741,1.845,1.845,0,0,1,.556-.764,1.538,1.538,0,0,1,1.019-.348,1.335,1.335,0,0,1,1.181.579,2.7,2.7,0,0,1,.347,1.483v4.908h3.033Z" transform="translate(-807.349 -633.073)"/></g><path d="M811.484,655.543h0a18.235,18.235,0,0,1-18.235-18.235h0a18.235,18.235,0,0,1,18.235-18.235h0a18.235,18.235,0,0,1,18.235,18.235h0A18.235,18.235,0,0,1,811.484,655.543Z" transform="translate(-793.249 -619.073)" fill="#00aeef"/><g transform="translate(8.162 8.104)"><path d="M825.989,633.073a1.471,1.471,0,0,1,1.065.428,1.389,1.389,0,0,1,.44,1.03V651.9a1.349,1.349,0,0,1-.44,1.019,1.465,1.465,0,0,1-1.042.417H808.831a1.461,1.461,0,0,1-1.042-.417,1.348,1.348,0,0,1-.44-1.019V634.531a1.387,1.387,0,0,1,.44-1.03,1.47,1.47,0,0,1,1.065-.428h17.135ZM813.184,639.2a1.621,1.621,0,0,0,0-2.269,1.682,1.682,0,0,0-1.227-.451,1.725,1.725,0,0,0-1.239.451,1.5,1.5,0,0,0-.475,1.135,1.517,1.517,0,0,0,.463,1.135,1.65,1.65,0,0,0,1.2.452h.023A1.71,1.71,0,0,0,813.184,639.2Zm.278,1.7h-3.033v9.146h3.033Zm10.953,3.89a4.436,4.436,0,0,0-1-3.1,3.6,3.6,0,0,0-4.33-.487,3.586,3.586,0,0,0-.9,1v-1.3h-3.033q.023.532,0,4.886v4.26h3.033v-5.117a2.272,2.272,0,0,1,.093-.741,1.845,1.845,0,0,1,.556-.764,1.538,1.538,0,0,1,1.019-.348,1.335,1.335,0,0,1,1.181.579,2.7,2.7,0,0,1,.347,1.483v4.908h3.033Z" transform="translate(-807.349 -633.073)" fill="#fff"/></g></svg>