<svg xmlns="http://www.w3.org/2000/svg" width="36.47" height="36.47" viewBox="0 0 36.47 36.47"><g transform="translate(11.254 8.093)"><path d="M970.5,496.815v.949a4.958,4.958,0,0,1-.347,1.737,10.989,10.989,0,0,1-.834,1.76q-.3.533-1.088,1.76-.718,1.135-1.065,1.76a3.629,3.629,0,0,1-.278.371,3.688,3.688,0,0,0-.278.371l-3.08,5.325q-2.918-4.723-3.937-6.414-.208-.371-.926-1.552-.6-.949-.926-1.551a12.9,12.9,0,0,1-.764-1.551,6.275,6.275,0,0,1-.417-1.529q-.023-.254-.023-.533v-.856a7.14,7.14,0,0,1,1.3-3.52,6.728,6.728,0,0,1,2.547-2.085,7.336,7.336,0,0,1,3.033-.694,7.053,7.053,0,0,1,3.589.949,6.687,6.687,0,0,1,2.848,3.288q.417.973.162.394a3.217,3.217,0,0,1,.162.417A5.366,5.366,0,0,1,970.5,496.815Zm-5.708,2.8a2.612,2.612,0,0,0,.973-.949,2.579,2.579,0,0,0,.012-2.605,2.625,2.625,0,0,0-.926-.938,2.473,2.473,0,0,0-1.3-.348,2.68,2.68,0,0,0-1.69.556,2.109,2.109,0,0,0-.811,1.737v.556a1.812,1.812,0,0,0,.046.648,2.663,2.663,0,0,0,1.042,1.3,2.4,2.4,0,0,0,1.343.394A2.608,2.608,0,0,0,964.788,499.617Z" transform="translate(-956.533 -490.563)"/></g><path d="M955.328,513.053h0a18.235,18.235,0,0,1-18.235-18.235h0a18.235,18.235,0,0,1,18.235-18.235h0a18.235,18.235,0,0,1,18.235,18.235h0A18.236,18.236,0,0,1,955.328,513.053Z" transform="translate(-937.093 -476.583)" fill="#00aeef"/><g transform="translate(11.254 8.093)"><path d="M970.5,496.815v.949a4.958,4.958,0,0,1-.347,1.737,10.989,10.989,0,0,1-.834,1.76q-.3.533-1.088,1.76-.718,1.135-1.065,1.76a3.629,3.629,0,0,1-.278.371,3.688,3.688,0,0,0-.278.371l-3.08,5.325q-2.918-4.723-3.937-6.414-.208-.371-.926-1.552-.6-.949-.926-1.551a12.9,12.9,0,0,1-.764-1.551,6.275,6.275,0,0,1-.417-1.529q-.023-.254-.023-.533v-.856a7.14,7.14,0,0,1,1.3-3.52,6.728,6.728,0,0,1,2.547-2.085,7.336,7.336,0,0,1,3.033-.694,7.053,7.053,0,0,1,3.589.949,6.687,6.687,0,0,1,2.848,3.288q.417.973.162.394a3.217,3.217,0,0,1,.162.417A5.366,5.366,0,0,1,970.5,496.815Zm-5.708,2.8a2.612,2.612,0,0,0,.973-.949,2.579,2.579,0,0,0,.012-2.605,2.625,2.625,0,0,0-.926-.938,2.473,2.473,0,0,0-1.3-.348,2.68,2.68,0,0,0-1.69.556,2.109,2.109,0,0,0-.811,1.737v.556a1.812,1.812,0,0,0,.046.648,2.663,2.663,0,0,0,1.042,1.3,2.4,2.4,0,0,0,1.343.394A2.608,2.608,0,0,0,964.788,499.617Z" transform="translate(-956.533 -490.563)" fill="#fff"/></g></svg>