<svg xmlns="http://www.w3.org/2000/svg" xmlns:xlink="http://www.w3.org/1999/xlink" width="110.555" height="119.932" viewBox="0 0 110.555 119.932"><defs><linearGradient id="a" x1="0.5" x2="0.302" y2="1.999" gradientUnits="objectBoundingBox"><stop offset="0" stop-color="#fb2626"/><stop offset="1" stop-color="#696d78"/></linearGradient><filter id="b" x="0" y="0" width="110.555" height="119.932" filterUnits="userSpaceOnUse"><feOffset dy="-12" input="SourceAlpha"/><feGaussianBlur stdDeviation="10" result="c"/><feFlood flood-opacity="0.161"/><feComposite operator="in" in2="c"/><feComposite in="SourceGraphic"/></filter></defs><g transform="matrix(1, 0, 0, 1, 0, 0)" filter="url(#b)"><path d="M104.146,0A15.391,15.391,0,0,0,93.2,26.216L86.948,51.093l16.11-20.708a1.331,1.331,0,0,0,1.088.4,15.395,15.395,0,0,0,0-30.789Zm10.826,20.093c-1.412.1-2.75-2.544-2.985-5.9s.722-6.157,2.135-6.258,2.751,2.544,2.987,5.9S116.386,19.995,114.971,20.093Z" transform="matrix(0.91, -0.41, 0.41, 0.91, -49.43, 90.62)" fill="url(#a)"/></g></svg>