<svg xmlns="http://www.w3.org/2000/svg" width="36.47" height="36.47" viewBox="0 0 36.47 36.47"><g transform="translate(8.103 9.855)"><path d="M809.215,1298.383q.486-1.5.579-1.76a.383.383,0,0,0,.035-.266.507.507,0,0,0-.2-.22,5.964,5.964,0,0,1-2.547-3.844,5.51,5.51,0,0,1,1.991-5.326,7.766,7.766,0,0,1,3.566-1.76,8.3,8.3,0,0,1,3.936.116,7.7,7.7,0,0,1,3.45,1.922,5.645,5.645,0,0,1,1.621,2.755.346.346,0,0,1,0,.254c-.031.046-.116.069-.255.069a6.855,6.855,0,0,0-5.21,1.852,4.883,4.883,0,0,0-1.505,5.117c.046.139.046.228,0,.266a.41.41,0,0,1-.255.058,8.35,8.35,0,0,1-2.292-.325,1.1,1.1,0,0,0-.88.093q-.3.186-1.783.973c-.077.031-.108.046-.093.046A.206.206,0,0,1,809.215,1298.383Zm3.635-9.262a.914.914,0,0,0-.278-.706,1.006,1.006,0,0,0-.718-.324.938.938,0,0,0-.718.29,1.021,1.021,0,0,0-.313.717.977.977,0,0,0,.289.73,1,1,0,0,0,.718.324.959.959,0,0,0,.718-.277A1.01,1.01,0,0,0,812.85,1289.12Zm8.544,1.551a6.748,6.748,0,0,1,2.57.579,6.071,6.071,0,0,1,2.246,1.76,4.574,4.574,0,0,1,.984,2.141,4.626,4.626,0,0,1-.185,2.293,4.764,4.764,0,0,1-1.308,1.98l-.324.3a2.116,2.116,0,0,0-.359.313.3.3,0,0,0-.069.22,2.7,2.7,0,0,0,.127.463l.255.741a.315.315,0,0,1-.046.3.2.2,0,0,1-.081.023.128.128,0,0,1-.081-.046l-.069-.046q-.95-.487-1.274-.695a.8.8,0,0,0-.37-.127,1.371,1.371,0,0,0-.44.058,6.893,6.893,0,0,1-6.159-1.158,4.852,4.852,0,0,1-1.737-2.431,4.567,4.567,0,0,1,0-2.8,4.844,4.844,0,0,1,1.714-2.431,6.622,6.622,0,0,1,2.038-1.076A8.208,8.208,0,0,1,821.394,1290.672Zm-3.45-1.528a1.043,1.043,0,0,0-.289-.729.994.994,0,0,0-1.424-.047,1.024,1.024,0,0,0-.324.706,1.016,1.016,0,0,0,1.7.8A1.045,1.045,0,0,0,817.944,1289.144Zm1.2,4.284a.74.74,0,0,0-.556.243.811.811,0,0,0-.232.579.83.83,0,0,0,.834.81.8.8,0,0,0,.556-.243.774.774,0,0,0,.232-.567.792.792,0,0,0-.243-.579A.8.8,0,0,0,819.148,1293.427Zm4.909.81a.777.777,0,0,0-.243-.567.791.791,0,0,0-.579-.243.735.735,0,0,0-.567.255.835.835,0,0,0-.232.579.831.831,0,0,0,.81.81.762.762,0,0,0,.567-.254A.826.826,0,0,0,824.057,1294.238Z" transform="translate(-806.998 -1285.024)"/></g><path d="M811.235,1304.47h0A18.235,18.235,0,0,1,793,1286.235h0A18.235,18.235,0,0,1,811.235,1268h0a18.235,18.235,0,0,1,18.235,18.235h0A18.234,18.234,0,0,1,811.235,1304.47Z" transform="translate(-793 -1268)" fill="#00aeef"/><g transform="translate(8.103 9.855)"><path d="M809.215,1298.383q.486-1.5.579-1.76a.383.383,0,0,0,.035-.266.507.507,0,0,0-.2-.22,5.964,5.964,0,0,1-2.547-3.844,5.51,5.51,0,0,1,1.991-5.326,7.766,7.766,0,0,1,3.566-1.76,8.3,8.3,0,0,1,3.936.116,7.7,7.7,0,0,1,3.45,1.922,5.645,5.645,0,0,1,1.621,2.755.346.346,0,0,1,0,.254c-.031.046-.116.069-.255.069a6.855,6.855,0,0,0-5.21,1.852,4.883,4.883,0,0,0-1.505,5.117c.046.139.046.228,0,.266a.41.41,0,0,1-.255.058,8.35,8.35,0,0,1-2.292-.325,1.1,1.1,0,0,0-.88.093q-.3.186-1.783.973c-.077.031-.108.046-.093.046A.206.206,0,0,1,809.215,1298.383Zm3.635-9.262a.914.914,0,0,0-.278-.706,1.006,1.006,0,0,0-.718-.324.938.938,0,0,0-.718.29,1.021,1.021,0,0,0-.313.717.977.977,0,0,0,.289.73,1,1,0,0,0,.718.324.959.959,0,0,0,.718-.277A1.01,1.01,0,0,0,812.85,1289.12Zm8.544,1.551a6.748,6.748,0,0,1,2.57.579,6.071,6.071,0,0,1,2.246,1.76,4.574,4.574,0,0,1,.984,2.141,4.626,4.626,0,0,1-.185,2.293,4.764,4.764,0,0,1-1.308,1.98l-.324.3a2.116,2.116,0,0,0-.359.313.3.3,0,0,0-.069.22,2.7,2.7,0,0,0,.127.463l.255.741a.315.315,0,0,1-.046.3.2.2,0,0,1-.081.023.128.128,0,0,1-.081-.046l-.069-.046q-.95-.487-1.274-.695a.8.8,0,0,0-.37-.127,1.371,1.371,0,0,0-.44.058,6.893,6.893,0,0,1-6.159-1.158,4.852,4.852,0,0,1-1.737-2.431,4.567,4.567,0,0,1,0-2.8,4.844,4.844,0,0,1,1.714-2.431,6.622,6.622,0,0,1,2.038-1.076A8.208,8.208,0,0,1,821.394,1290.672Zm-3.45-1.528a1.043,1.043,0,0,0-.289-.729.994.994,0,0,0-1.424-.047,1.024,1.024,0,0,0-.324.706,1.016,1.016,0,0,0,1.7.8A1.045,1.045,0,0,0,817.944,1289.144Zm1.2,4.284a.74.74,0,0,0-.556.243.811.811,0,0,0-.232.579.83.83,0,0,0,.834.81.8.8,0,0,0,.556-.243.774.774,0,0,0,.232-.567.792.792,0,0,0-.243-.579A.8.8,0,0,0,819.148,1293.427Zm4.909.81a.777.777,0,0,0-.243-.567.791.791,0,0,0-.579-.243.735.735,0,0,0-.567.255.835.835,0,0,0-.232.579.831.831,0,0,0,.81.81.762.762,0,0,0,.567-.254A.826.826,0,0,0,824.057,1294.238Z" transform="translate(-806.998 -1285.024)" fill="#fff"/></g></svg>