<svg xmlns="http://www.w3.org/2000/svg" width="33.132" height="40.681" viewBox="0 0 33.132 40.681"><path d="M-107.929,472.371c-.332-.076-.666-.144-1-.228a7.546,7.546,0,0,1-5.743-7.12,7.538,7.538,0,0,1,5.236-7.392,7.531,7.531,0,0,1,9.772,5.955,7.515,7.515,0,0,1-6.423,8.712.789.789,0,0,0-.178.073Zm.11-6.235c-.7-.56-1.368-1.1-2.049-1.624a1.14,1.14,0,0,0-1.625.178,1.134,1.134,0,0,0,.2,1.624q1.382,1.129,2.787,2.229a1.159,1.159,0,0,0,1.779-.171c.505-.559,1-1.124,1.5-1.687,1-1.127,2.009-2.248,3-3.385a1.136,1.136,0,0,0-.619-1.931,1.2,1.2,0,0,0-1.179.49C-105.272,463.273-106.529,464.684-107.819,466.136Z" transform="translate(132.693 -431.689)" fill="#fcfcff"/><path d="M-276.646,256.234a2.887,2.887,0,0,0,.27,1.884,2.785,2.785,0,0,0,2.574,1.565q3.772.04,7.545,0a2.876,2.876,0,0,0,2.865-3.268c0-.052,0-.1,0-.179a1.382,1.382,0,0,1,.221-.035c1.112,0,2.225-.03,3.335.013a4.767,4.767,0,0,1,1.462.3,2.082,2.082,0,0,1,1.426,2.082q.017,8.6,0,17.192a.8.8,0,0,1-.014.121l-2.914.31V262.64h-20.3v23.177h13.294l.656,2.927c-.07,0-.174.012-.278.012q-7.069,0-14.138,0a2.314,2.314,0,0,1-2.376-1.719,3.5,3.5,0,0,1-.108-.9q-.008-13.658,0-27.316a2.653,2.653,0,0,1,1.118-2.366,1.354,1.354,0,0,1,.7-.242c1.5-.021,2.992-.011,4.487-.009A1.219,1.219,0,0,1-276.646,256.234Z" transform="translate(283.129 -252.129)" fill="#fcfcff"/><path d="M-206.926,224.65c-1.19,0-2.38.01-3.57,0a1.763,1.763,0,0,1-1.8-2.365,1.766,1.766,0,0,1,1.723-1.158c.251-.01.5.005.753-.006a.809.809,0,0,0,.876-.823,2.072,2.072,0,0,1,1.415-1.958,2.037,2.037,0,0,1,2.69,1.785c.09.784.328.993,1.122,1a6.924,6.924,0,0,1,.83.04,1.731,1.731,0,0,1,1.545,1.722,1.679,1.679,0,0,1-1.545,1.713c-1.039.076-2.086.04-3.13.051C-206.318,224.653-206.622,224.65-206.926,224.65Zm.033-3.539a.861.861,0,0,0,.879-.832.87.87,0,0,0-.864-.855.853.853,0,0,0-.848.82A.837.837,0,0,0-206.894,221.112Z" transform="translate(219.971 -218.222)" fill="#fcfcff"/></svg>