<svg xmlns="http://www.w3.org/2000/svg" width="35.867" height="33.61" viewBox="0 0 35.867 33.61"><path d="M568.533,810.864c.008-.244.155-6-3.472-9.323a1,1,0,0,0-1.28-.058c-.161.122-3.976,2.947-7.581.011a1,1,0,0,0-1.285.02,8.851,8.851,0,0,0-1.1,1.239,12.381,12.381,0,0,0-2.02-2.4,1,1,0,0,0-1.281-.057c-.24.183-5.949,4.428-11.378.006a1,1,0,0,0-1.285.021c-.207.18-5.063,4.5-5.185,13a1,1,0,0,0,1,1.013l21.961-.005a1,1,0,0,0,1-.965c0-.085.017-.652-.04-1.527l10.95,0A1,1,0,0,0,568.533,810.864ZM534.7,812.331a16.7,16.7,0,0,1,3.906-9.931c5.187,3.616,10.478,1.106,12.382-.038,2.943,3.162,3.511,7.936,3.616,9.965Zm21.659-2.5a19.929,19.929,0,0,0-1.478-5.113,9.838,9.838,0,0,1,.8-1.133,8.116,8.116,0,0,0,8.558-.022,11.217,11.217,0,0,1,2.254,6.266Z" transform="translate(-532.668 -780.718)" fill="#fff"/><path d="M562.454,782.048h0a6.868,6.868,0,1,0-4.857-11.721,6.947,6.947,0,0,0-1.007,1.29c.03-.309.046-.62.046-.935a9.4,9.4,0,1,0-9.4,9.4h0a9.329,9.329,0,0,0,6.64-2.755,9.444,9.444,0,0,0,1.714-2.351c0,.07-.01.138-.01.209A6.876,6.876,0,0,0,562.454,782.048Zm-3.443-10.309a4.868,4.868,0,1,1,3.445,8.313h0a4.868,4.868,0,0,1-3.443-8.313Zm-6.54,4.176a7.341,7.341,0,0,1-5.227,2.17h0a7.411,7.411,0,1,1,5.23-2.17Z" transform="translate(-535.261 -761.289)" fill="#fff"/></svg>