<svg xmlns="http://www.w3.org/2000/svg" width="25.493" height="22.943" viewBox="0 0 25.493 22.943">
  <g id="Group_11018" data-name="Group 11018" transform="translate(-23 -70.5)">
    <g id="Group_10874" data-name="Group 10874" transform="translate(0 -1)">
      <g id="user-list" transform="translate(23 71.5)">
        <path id="Path_1376" data-name="Path 1376" d="M9.1,13.2A5.1,5.1,0,1,0,4,8.1,5.1,5.1,0,0,0,9.1,13.2Zm0-2.549A2.549,2.549,0,1,0,6.549,8.1,2.549,2.549,0,0,0,9.1,10.648Z" transform="translate(-1.451 -3)" fill="#fff" fill-rule="evenodd"/>
        <path id="Path_1377" data-name="Path 1377" d="M13.472,14.549a1.275,1.275,0,0,1,1.275,1.275v7.648H17.3V15.824A3.824,3.824,0,0,0,13.472,12H5.824A3.824,3.824,0,0,0,2,15.824v7.648H4.549V15.824a1.275,1.275,0,0,1,1.275-1.275Z" transform="translate(-2 -0.528)" fill="#fff"/>
        <path id="Path_1378" data-name="Path 1378" d="M23.648,11H16v2.549h7.648Z" transform="translate(1.845 -0.803)" fill="#fff"/>
        <path id="Path_1379" data-name="Path 1379" d="M16,15h7.648v2.549H16Z" transform="translate(1.845 0.296)" fill="#fff"/>
        <path id="Path_1380" data-name="Path 1380" d="M23.648,7H16V9.549h7.648Z" transform="translate(1.845 -1.901)" fill="#fff"/>
      </g>
    </g>
  </g>
</svg>
