<svg xmlns="http://www.w3.org/2000/svg" width="25.774" height="33.026" viewBox="0 0 25.774 33.026"><path d="M530.766,529.158a.6.6,0,0,0-.175,1.188,28.631,28.631,0,0,0,6.084.707c8.683,0,13.177-4.968,16.372-10.244l1.933,1.159a.6.6,0,0,0,.9-.616l-1.243-7.345a.6.6,0,0,0-.829-.454l-6.575,2.789a.6.6,0,0,0-.029,1.1l1.982.967C543.9,530.048,531.308,529.2,530.766,529.158Zm19.761-10.808a.6.6,0,0,0-.29-.775l-1.314-.641,4.657-1.976.9,5.3-1.328-.8a.6.6,0,0,0-.829.211c-3.222,5.477-7.442,10.347-16.042,10.175A19.164,19.164,0,0,0,550.527,518.351Z" transform="translate(-530.117 -513.505)" fill="#fff"/><path d="M533.649,580.461a2.345,2.345,0,0,0-2.072,2.584v4.527a2.345,2.345,0,0,0,2.072,2.584h2.833a2.345,2.345,0,0,0,2.073-2.584v-4.527a2.345,2.345,0,0,0-2.073-2.584Zm3.7,2.584v4.527c0,.735-.406,1.38-.868,1.38h-2.833c-.462,0-.868-.644-.868-1.38v-4.527c0-.735.406-1.38.868-1.38h2.833C536.945,581.665,537.351,582.31,537.351,583.045Z" transform="translate(-531.068 -557.129)" fill="#fff"/><path d="M558.228,568.281a2.345,2.345,0,0,0-2.072,2.584v8.771a2.345,2.345,0,0,0,2.072,2.584h2.834a2.345,2.345,0,0,0,2.072-2.584v-8.771a2.345,2.345,0,0,0-2.072-2.584Zm3.7,2.584v8.771c0,.735-.406,1.38-.868,1.38h-2.834c-.462,0-.868-.644-.868-1.38v-8.771c0-.735.406-1.38.868-1.38h2.834C561.524,569.485,561.93,570.13,561.93,570.865Z" transform="translate(-547.082 -549.193)" fill="#fff"/><path d="M588.066,553.665h-2.833a2.345,2.345,0,0,0-2.072,2.584v13.865a2.345,2.345,0,0,0,2.072,2.584h2.833a2.345,2.345,0,0,0,2.072-2.584V556.249A2.345,2.345,0,0,0,588.066,553.665Zm.868,16.448c0,.735-.406,1.38-.868,1.38h-2.833c-.462,0-.868-.644-.868-1.38V556.249c0-.735.406-1.38.868-1.38h2.833c.463,0,.868.644.868,1.38Z" transform="translate(-564.677 -539.67)" fill="#fff"/></svg>