<svg xmlns="http://www.w3.org/2000/svg" xmlns:xlink="http://www.w3.org/1999/xlink" width="16.874" height="16.141" viewBox="0 0 16.874 16.141"><defs><linearGradient id="a" x1="0.006" y1="0.006" x2="0.986" y2="0.986" gradientUnits="objectBoundingBox"><stop offset="0" stop-color="#6e00dd"/><stop offset="1" stop-color="#a826c7"/></linearGradient></defs><path d="M16.525,7.506.856.056A.594.594,0,0,0,.135.23.632.632,0,0,0,.121.992S3.49,5.036,5.172,7.347c.036.049,3.265.723,3.265.723s-3.231.66-3.265.706C3.488,11.089.121,15.147.121,15.147a.634.634,0,0,0,.013.762.594.594,0,0,0,.469.231.583.583,0,0,0,.252-.057l15.669-7.45a.629.629,0,0,0,0-1.127Z" transform="translate(0 0)" fill="url(#a)"/></svg>