<svg xmlns="http://www.w3.org/2000/svg" width="32.697" height="36.194" viewBox="0 0 32.697 36.194"><path d="M957.283,323.34a10.387,10.387,0,1,0,9.805,13.81c.7.029,1.343.038,1.867.038,3.189,0,10.608-.337,10.608-3.463,0-.01,0-.019,0-.028s0-.017,0-.024V329.5a1.368,1.368,0,0,0,.03-.286,1.327,1.327,0,0,0-.03-.27V325.51a1.373,1.373,0,0,0,.03-.286,1.327,1.327,0,0,0-.03-.269v-3.822a1.334,1.334,0,0,0-.055-.752,1.812,1.812,0,0,0,.055-.43c0-.01,0-.018,0-.028s0-.017,0-.024v-4.173a1.376,1.376,0,0,0,.03-.287,1.323,1.323,0,0,0-.03-.269v-3.822a1.346,1.346,0,0,0-.061-.769,1.321,1.321,0,0,0-.559-.757c-2.167-1.838-9.071-1.9-9.988-1.9s-7.82.063-9.987,1.9a1.321,1.321,0,0,0-.559.756,1.375,1.375,0,0,0-.091.483,1.41,1.41,0,0,0,.03.287v3.822a1.305,1.305,0,0,0-.03.27,1.409,1.409,0,0,0,.03.287V319.9c0,.01,0,.018,0,.028s0,.017,0,.024a1.837,1.837,0,0,0,.056.431,1.369,1.369,0,0,0-.085.465,1.409,1.409,0,0,0,.03.286v2.262A10.564,10.564,0,0,0,957.283,323.34Zm21.069,10.3c0,.026,0,.053,0,.076s0,.022,0,.035c-.06,1.164-4.252,2.107-9.4,2.107-.511,0-1.01-.011-1.5-.03a10.376,10.376,0,0,0,.214-2.1c0-.183-.005-.365-.015-.547.479.014.921.02,1.3.02,2.392,0,7.16-.19,9.4-1.6Zm0-3.989c0,.026,0,.053,0,.076s0,.022,0,.035c-.06,1.164-4.252,2.107-9.4,2.107-.5,0-.983-.011-1.46-.028a10.289,10.289,0,0,0-1.1-3.093c.972.057,1.867.074,2.559.074,2.392,0,7.16-.19,9.4-1.6Zm0-9.785c0,.025,0,.053,0,.075s0,.022,0,.035c-.06,1.164-4.252,2.108-9.4,2.108s-9.337-.944-9.4-2.109c0-.023,0-.046,0-.066s0-.028,0-.044l0-2.432c2.236,1.414,7.006,1.6,9.4,1.6s7.16-.19,9.4-1.6Zm-9.4-10.413c5.335,0,8.64.99,9.2,1.608-.558.618-3.864,1.609-9.2,1.609s-8.64-.991-9.2-1.609C960.315,310.443,963.621,309.453,968.955,309.453Zm0,4.749c.845,0,6.777-.054,9.4-1.5v2.789c0,.026,0,.053,0,.075s0,.022,0,.035c-.06,1.164-4.252,2.108-9.4,2.108s-9.337-.944-9.4-2.108c0-.023,0-.046,0-.066s0-.028,0-.044l0-2.789C962.176,314.148,968.11,314.2,968.955,314.2Zm0,9.785c.845,0,6.777-.054,9.4-1.5v2.788c0,.026,0,.053,0,.076s0,.022,0,.034c-.06,1.164-4.252,2.108-9.4,2.108-1.235,0-2.412-.056-3.493-.154a10.4,10.4,0,0,0-5.9-3.743v-1.111C962.176,323.933,968.11,323.987,968.955,323.987Zm-2.616,9.74a9.056,9.056,0,1,1-9.057-9.056A9.067,9.067,0,0,1,966.339,333.727Z" transform="translate(-946.896 -307.92)" fill="#fff"/><path d="M955.013,359.965a7,7,0,1,0,7-7A7.006,7.006,0,0,0,955.013,359.965Zm13.11,0a6.111,6.111,0,1,1-6.112-6.111A6.119,6.119,0,0,1,968.123,359.965Z" transform="translate(-951.624 -334.159)" fill="#fff"/><path d="M967.381,358.54v.75a2.481,2.481,0,0,0-.935.614,2.249,2.249,0,0,0-.606,1.553,2.162,2.162,0,0,0,.175.869,2.322,2.322,0,0,0,.808.954,5.252,5.252,0,0,0,1.134.582,1.868,1.868,0,0,1,.625.355.325.325,0,0,1,.074.1.268.268,0,0,1,.02.11.225.225,0,0,1-.086.192.707.707,0,0,1-.439.122,1.9,1.9,0,0,1-1.085-.323l-.262-.174a.443.443,0,0,0-.663.219l-.413,1.155a.443.443,0,0,0,.159.51l.153.109a2.981,2.981,0,0,0,.9.415q.184.054.372.09v.657a.443.443,0,0,0,.443.443h1.135a.444.444,0,0,0,.443-.443v-.779a2.541,2.541,0,0,0,1.03-.7,2.361,2.361,0,0,0,.582-1.557,2.493,2.493,0,0,0-.139-.846,2.313,2.313,0,0,0-.73-1.012,4.26,4.26,0,0,0-1.116-.636.434.434,0,0,0-.046-.019,2.857,2.857,0,0,1-.749-.392.23.23,0,0,1-.058-.065.164.164,0,0,1-.006-.058.135.135,0,0,1,.037-.1.541.541,0,0,1,.354-.091,1.8,1.8,0,0,1,.588.093,1.934,1.934,0,0,1,.354.163l.249.143a.443.443,0,0,0,.636-.227l.431-1.137a.444.444,0,0,0-.19-.54l-.18-.105a3.24,3.24,0,0,0-.985-.374v-.623a.443.443,0,0,0-.443-.443h-1.124A.443.443,0,0,0,967.381,358.54Zm.887,1.076v-.632h.237v.561a.443.443,0,0,0,.4.442,2.553,2.553,0,0,1,.876.238l-.114.3a2.6,2.6,0,0,0-.309-.126,2.718,2.718,0,0,0-.873-.139,1.347,1.347,0,0,0-.969.342,1.012,1.012,0,0,0-.306.733.986.986,0,0,0,.091.436,1.074,1.074,0,0,0,.273.352,3.683,3.683,0,0,0,1.022.557h0a3.463,3.463,0,0,1,.911.509,1.442,1.442,0,0,1,.459.627,1.617,1.617,0,0,1,.087.547,1.471,1.471,0,0,1-.362.973h0a1.735,1.735,0,0,1-.909.529.443.443,0,0,0-.339.43v.663H968.2v-.6a.444.444,0,0,0-.4-.442,3.15,3.15,0,0,1-.605-.114,2.4,2.4,0,0,1-.508-.207l.11-.309a2.962,2.962,0,0,0,1.356.344,1.5,1.5,0,0,0,1.016-.33,1.123,1.123,0,0,0,.4-.868,1.158,1.158,0,0,0-.091-.46,1.2,1.2,0,0,0-.259-.38,2.7,2.7,0,0,0-.928-.556,4.415,4.415,0,0,1-.947-.481,1.438,1.438,0,0,1-.51-.587,1.272,1.272,0,0,1-.1-.514,1.364,1.364,0,0,1,.365-.945,1.677,1.677,0,0,1,.836-.465A.443.443,0,0,0,968.268,359.616Z" transform="translate(-957.849 -337.147)" fill="#fff"/></svg>