<svg xmlns="http://www.w3.org/2000/svg" width="22.462" height="31.62" viewBox="0 0 22.462 31.62"><path d="M1511.652,575.145a6.516,6.516,0,0,1,1.292.6,2.558,2.558,0,0,1,.806,3.072c-.022.055-.04.11-.073.207.7,0,1.363,0,2.028,0a2.891,2.891,0,0,1,.614.04,1.383,1.383,0,0,1,1.082,1.3c.014.244,0,.489,0,.773h.364c.9,0,1.791,0,2.686,0a2.169,2.169,0,0,1,2.3,2.277q.009,10.541,0,21.085a2.158,2.158,0,0,1-2.281,2.262q-8.938.006-17.875,0a2.165,2.165,0,0,1-2.295-2.281q-.009-10.526,0-21.054a2.173,2.173,0,0,1,2.319-2.29c.884,0,1.77,0,2.655,0h.372c0-.229,0-.432,0-.634a1.405,1.405,0,0,1,1.474-1.476c.6-.01,1.193,0,1.808,0a.58.58,0,0,0-.02-.162,2.643,2.643,0,0,1,2.041-3.679.352.352,0,0,0,.084-.037Zm-6.033,8.153c-.542,0-1.066,0-1.59,0a1.381,1.381,0,0,0-1.569,1.574q0,9.092,0,18.186a1.392,1.392,0,0,0,1.588,1.591h5.96q4.523,0,9.046,0a1.474,1.474,0,0,0,1.238-.5,1.566,1.566,0,0,0,.306-1.043q0-9.139,0-18.279a2.271,2.271,0,0,0-.035-.43,1.154,1.154,0,0,0-1-1.038,20.267,20.267,0,0,0-2.144-.017,1.066,1.066,0,0,1-1.2,1.01q-4.662,0-9.325,0C1506.124,584.352,1505.79,584.081,1505.619,583.3Zm5.7-4.272c.236,0,.474-.016.709,0a.523.523,0,0,0,.474-.218,1.566,1.566,0,1,0-2.387-.027.558.558,0,0,0,.525.245C1510.863,579.009,1511.091,579.026,1511.318,579.026Z" transform="translate(-1500.298 -575.145)" fill="#fff"/><path d="M1512.105,591.189c-1.039,0-2.077.011-3.116,0a1.065,1.065,0,0,1-1.055-1.449,1.012,1.012,0,0,1,.841-.682,2.38,2.38,0,0,1,.338-.025q3.007,0,6.016,0a2.446,2.446,0,0,1,.368.027,1.065,1.065,0,0,1,.9,1.087,1.042,1.042,0,0,1-.958,1.028c-.441.03-.884.016-1.326.017C1513.443,591.191,1512.774,591.19,1512.105,591.189Z" transform="translate(-1498.496 -571.836)" fill="#fff"/><path d="M1512.135,593.63c1.059,0,2.117,0,3.177,0a1.016,1.016,0,0,1,.978.628,1.028,1.028,0,0,1-.144,1.128,1.041,1.041,0,0,1-.866.4c-2.1.005-4.2.011-6.293,0a1.078,1.078,0,1,1,.031-2.152c1.038-.01,2.077,0,3.116,0Z" transform="translate(-1498.495 -570.74)" fill="#fff"/><path d="M1512.125,584.765c1.08,0,2.16-.006,3.24,0a1.007,1.007,0,0,1,.965.69.952.952,0,0,1-.285,1.118,1.269,1.269,0,0,1-.721.282c-2.129.022-4.259.017-6.388.01a1.052,1.052,0,1,1,.011-2.1c1.059-.01,2.119,0,3.179,0Z" transform="translate(-1498.495 -572.853)" fill="#fff"/><path d="M1507.5,585.956a1.874,1.874,0,0,1-3.748.019,1.874,1.874,0,1,1,3.748-.019Z" transform="translate(-1499.476 -573.014)" fill="#fff"/><path d="M1505.638,588.4a1.868,1.868,0,1,1-1.888,1.871A1.867,1.867,0,0,1,1505.638,588.4Z" transform="translate(-1499.476 -571.987)" fill="#fff"/><path d="M1505.616,592.993a1.867,1.867,0,1,1-1.866,1.862A1.866,1.866,0,0,1,1505.616,592.993Z" transform="translate(-1499.476 -570.891)" fill="#fff"/></svg>