<svg xmlns="http://www.w3.org/2000/svg" width="19.23" height="19.23" viewBox="0 0 19.23 19.23"><path d="M896.39,278.566a9.6,9.6,0,1,1-3.509-3.509,9.641,9.641,0,0,1,3.509,3.487Zm-14.345,10.121a10.863,10.863,0,0,1,2.926-3.454,9.8,9.8,0,0,1,3.916-2.068q-.309-.7-.572-1.21a23.341,23.341,0,0,1-7.151,1.056h-1.122v.176a1.008,1.008,0,0,0-.022.2A7.811,7.811,0,0,0,882.044,288.687Zm-1.76-7.283q.417.045,1.254.044a20.9,20.9,0,0,0,6.095-.88,19.257,19.257,0,0,0-3.212-4.334,7.853,7.853,0,0,0-2.618,2.156A8.237,8.237,0,0,0,880.284,281.4Zm10.6,9.461a29.3,29.3,0,0,0-1.5-6.359,8.121,8.121,0,0,0-3.586,1.936,10.8,10.8,0,0,0-2.662,3.278,7.825,7.825,0,0,0,7.745,1.144Zm-4.8-15.225A19.82,19.82,0,0,1,889.217,280a9.522,9.522,0,0,0,3.96-2.794,7.84,7.84,0,0,0-5.126-1.848A6.89,6.89,0,0,0,886.093,275.64Zm9.945,7.217a7.741,7.741,0,0,0-1.892-4.664,9.311,9.311,0,0,1-4.224,3.168q.285.616.66,1.562,1.408-.132,3.1-.132Q894.849,282.791,896.038,282.857Zm-.022,1.408q-1.408-.087-2.552-.088-1.034,0-2.4.088a28.683,28.683,0,0,1,1.32,5.853,7.961,7.961,0,0,0,2.486-2.508A7.591,7.591,0,0,0,896.016,284.265Z" transform="translate(-878.436 -273.77)" fill="#2699fb"/></svg>