<svg xmlns="http://www.w3.org/2000/svg" width="36.47" height="36.47" viewBox="0 0 36.47 36.47"><g transform="translate(8.186 8.105)"><path d="M966.353,1283.367a9.882,9.882,0,0,1,3.543,13.5,9.988,9.988,0,0,1-3.543,3.543,9.9,9.9,0,0,1-9.749.116l-5.465,1.737,1.783-5.28a9.9,9.9,0,0,1-.069-10.073,9.821,9.821,0,0,1,13.5-3.543Zm.023,11.184a.838.838,0,0,0-.023-.382.451.451,0,0,0-.162-.151c.046.031-.054-.023-.3-.162q-1.482-.717-1.644-.764a.481.481,0,0,0-.6.162q-.51.695-.648.88a.566.566,0,0,1-.278.115.593.593,0,0,1-.324-.046q-.486-.207-.718-.324a7.689,7.689,0,0,1-1.227-.857,7.164,7.164,0,0,1-1.343-1.69.359.359,0,0,1-.046-.3.761.761,0,0,1,.139-.208l.37-.394a1.768,1.768,0,0,0,.289-.405.471.471,0,0,0-.058-.428l-.741-1.806a.8.8,0,0,0-.22-.325.562.562,0,0,0-.313-.069l-.278-.023a1.08,1.08,0,0,0-.834.3,3.632,3.632,0,0,0-.533.648,2.828,2.828,0,0,0-.324,1.366,4.353,4.353,0,0,0,.973,2.5q-.162-.232.255.347a8.038,8.038,0,0,0,.556.718q.417.487.857.926.556.51,1.111.927a6.976,6.976,0,0,0,1.366.741,9.549,9.549,0,0,0,1.991.648,2.52,2.52,0,0,0,.9-.023,2.977,2.977,0,0,0,1-.417,1.563,1.563,0,0,0,.648-.763A2.573,2.573,0,0,0,966.376,1294.551Z" transform="translate(-951.14 -1282.001)"/></g><path d="M955.235,1304.47h0A18.235,18.235,0,0,1,937,1286.235h0A18.235,18.235,0,0,1,955.235,1268h0a18.235,18.235,0,0,1,18.235,18.235h0A18.234,18.234,0,0,1,955.235,1304.47Z" transform="translate(-937 -1268)" fill="#00aeef"/><g transform="translate(8.186 8.105)"><path d="M966.353,1283.367a9.882,9.882,0,0,1,3.543,13.5,9.988,9.988,0,0,1-3.543,3.543,9.9,9.9,0,0,1-9.749.116l-5.465,1.737,1.783-5.28a9.9,9.9,0,0,1-.069-10.073,9.821,9.821,0,0,1,13.5-3.543Zm.023,11.184a.838.838,0,0,0-.023-.382.451.451,0,0,0-.162-.151c.046.031-.054-.023-.3-.162q-1.482-.717-1.644-.764a.481.481,0,0,0-.6.162q-.51.695-.648.88a.566.566,0,0,1-.278.115.593.593,0,0,1-.324-.046q-.486-.207-.718-.324a7.689,7.689,0,0,1-1.227-.857,7.164,7.164,0,0,1-1.343-1.69.359.359,0,0,1-.046-.3.761.761,0,0,1,.139-.208l.37-.394a1.768,1.768,0,0,0,.289-.405.471.471,0,0,0-.058-.428l-.741-1.806a.8.8,0,0,0-.22-.325.562.562,0,0,0-.313-.069l-.278-.023a1.08,1.08,0,0,0-.834.3,3.632,3.632,0,0,0-.533.648,2.828,2.828,0,0,0-.324,1.366,4.353,4.353,0,0,0,.973,2.5q-.162-.232.255.347a8.038,8.038,0,0,0,.556.718q.417.487.857.926.556.51,1.111.927a6.976,6.976,0,0,0,1.366.741,9.549,9.549,0,0,0,1.991.648,2.52,2.52,0,0,0,.9-.023,2.977,2.977,0,0,0,1-.417,1.563,1.563,0,0,0,.648-.763A2.573,2.573,0,0,0,966.376,1294.551Z" transform="translate(-951.14 -1282.001)" fill="#fff"/></g></svg>